HIERARCHY
ROOT Hips
{
	OFFSET 0.00000 0.00000 0.00000
	CHANNELS 6 Xposition Yposition Zposition Zrotation Yrotation Xrotation 
	JOINT LHipJoint
	{
		OFFSET 0 0 0
		CHANNELS 3 Zrotation Yrotation Xrotation
		JOINT LeftHip
		{
			OFFSET 1.37733 -1.58235 0.71371
			CHANNELS 3 Zrotation Yrotation Xrotation
			JOINT LeftKnee
			{
				OFFSET 2.33951 -6.42775 0.00000
				CHANNELS 3 Zrotation Yrotation Xrotation
				JOINT LeftAnkle
				{
					OFFSET 2.30523 -6.33358 0.00000
					CHANNELS 3 Zrotation Yrotation Xrotation
					JOINT LeftToe
					{
						OFFSET 0.05388 -0.14857 1.53863
						CHANNELS 3 Zrotation Yrotation Xrotation
						End Site
						{
							OFFSET 0.00000 -0.00000 0.79208
						}
					}
				}
			}
		}
	}
	JOINT RHipJoint
	{
		OFFSET 0 0 0
		CHANNELS 3 Zrotation Yrotation Xrotation
		JOINT RightHip
		{
			OFFSET -1.47839 -1.58235 0.71371
			CHANNELS 3 Zrotation Yrotation Xrotation
			JOINT RightKnee
			{
				OFFSET -2.26534 -6.22397 0.00000
				CHANNELS 3 Zrotation Yrotation Xrotation
				JOINT RightAnkle
				{
					OFFSET -2.27037 -6.23779 0.00000
					CHANNELS 3 Zrotation Yrotation Xrotation
					JOINT RightToe
					{
						OFFSET -0.09543 -0.26220 1.62615
						CHANNELS 3 Zrotation Yrotation Xrotation
						End Site
						{
							OFFSET -0.00000 -0.00000 0.83991
						}
					}
				}
			}
		}
	}
	JOINT lowerback
	{
		OFFSET 0 0 0
		CHANNELS 3 Zrotation Yrotation Xrotation
		JOINT Chest
		{
			OFFSET 0.00101 1.81877 -0.00412
			CHANNELS 3 Zrotation Yrotation Xrotation
			JOINT Chest2
			{
				OFFSET 0.00322 1.81934 -0.03962
				CHANNELS 3 Zrotation Yrotation Xrotation
				JOINT lowerneck
				{
					OFFSET 0 0 0
					CHANNELS 3 Zrotation Yrotation Xrotation
					JOINT Neck
					{
						OFFSET -0.13795 1.66192 0.22650
						CHANNELS 3 Zrotation Yrotation Xrotation
						JOINT Head
						{
							OFFSET 0.14844 1.65995 -0.39123
							CHANNELS 3 Zrotation Yrotation Xrotation
							End Site
							{
								OFFSET 0.04109 1.72502 -0.16783
							}
						}
					}
				}
				JOINT LeftCollar
				{
					OFFSET 0 0 0
					CHANNELS 3 Zrotation Yrotation Xrotation
					JOINT LeftShoulder
					{
						OFFSET 3.25446 1.41983 0.32106
CHANNELS 3 Zrotation Xrotation Yrotation
						JOINT LeftElbow
						{
OFFSET 0 -4.054440 -0.000000
CHANNELS 3 Zrotation Xrotation Yrotation
							JOINT LeftWrist
							{
OFFSET 0 -3.212050 0.000000
CHANNELS 3 Zrotation Xrotation Yrotation
								JOINT lhand
								{
									OFFSET 0 0 0
CHANNELS 3 Zrotation Xrotation Yrotation
									JOINT LFingers
									{
OFFSET 0 -0.707410 0.000000
CHANNELS 3 Zrotation Xrotation Yrotation
										End Site
										{
OFFSET 0 -0.570330 0.000000
										}
									}
								}
								JOINT LThumb
								{
OFFSET 0 0.000000 0.000000
CHANNELS 3 Zrotation Xrotation Yrotation
									End Site
									{
OFFSET 0 -0.579040 0.579040
									}
								}
							}
						}
					}
				}
				JOINT RightCollar
				{
					OFFSET 0 0 0
					CHANNELS 3 Zrotation Yrotation Xrotation
					JOINT RightShoulder
					{
						OFFSET -3.30007 1.25485 0.33947
CHANNELS 3 Zrotation Xrotation Yrotation
						JOINT RightElbow
						{
OFFSET 0 -3.740480 -0.000000
CHANNELS 3 Zrotation Xrotation Yrotation
							JOINT RightWrist
							{
OFFSET 0 -3.160300 0.000000
CHANNELS 3 Zrotation Xrotation Yrotation
								JOINT rhand
								{
									OFFSET 0 0 0
CHANNELS 3 Zrotation Xrotation Yrotation
									JOINT RFingers
									{
OFFSET 0 -0.717030 0.000000
CHANNELS 3 Zrotation Xrotation Yrotation
										End Site
										{
OFFSET 0 -0.578090 0.000000
										}
									}
								}
								JOINT RThumb
								{
OFFSET 0 0.000000 0.000000
CHANNELS 3 Zrotation Xrotation Yrotation
									End Site
									{
OFFSET 0 -0.586910 0.586910
									}
								}
							}
						}
					}
				}
			}
		}
	}
}
MOTION
Frames: 12
Frame Time: 0.008333333333333333
10.263500 14.587400 3.206600 -52.955600 89.867800 -56.010200 0.000000 0.000000 0.000000 -9.498900 -1.745700 -21.213500 9.444100 17.085100 57.613600 0.000000 0.000000 0.000000 0.000000 0.000000 0.000000 0.000000 0.000000 0.000000 10.550500 -1.330900 -19.733100 -8.538900 -16.501700 54.481300 -0.034800 10.177800 15.040100 -0.834800 5.828500 -16.287500 -0.136000 -0.461700 -0.455800 0.086300 -0.605600 1.770200 0.151100 -0.301400 2.071000 -15.550700 -14.141500 -16.368600 13.585200 -18.939600 19.386600 4.227700 -8.332500 11.917900 -0.000000 -0.000000 0.000000 90.000000 0.000000 0.000000 -0.000000 0.000000 0.000000 -0.000000 0.000000 0.000000 0.000000 0.000000 0.000000 -0.000000 -0.000000 -0.000000 0.000000 0.000000 -0.000000 -0.000000 -0.000000 0.000000 -90.000000 0.000000 -0.000000 0.000000 0.000000 -0.000000 0.000000 0.000000 -0.000000 0.000000 0.000000 0.000000 0.000000 -0.000000 0.000000 0.000000 0.000000 0.000000
10.265161 14.586827 3.206371 -59.850415 89.861959 -62.893677 0.000000 0.000000 0.000000 -9.486188 -1.750911 -21.222490 9.448910 17.088020 57.629920 0.000000 0.000000 0.000000 0.000000 0.000000 0.000000 0.000000 0.000000 0.000000 10.564701 -1.335767 -19.731153 -8.535522 -16.499410 54.469561 -0.034342 10.184042 15.041474 -0.774675 5.616516 -15.676571 -0.130102 -0.450076 -0.483171 0.073817 -0.590311 1.750731 0.135181 -0.293670 2.066133 -15.527280 -14.147971 -16.349360 13.583310 -18.961589 19.419927 4.220199 -8.340517 11.927806 0.000000 0.000000 0.000000 90.000000 0.000000 0.000000 0.000000 0.000000 0.000000 0.000000 0.000000 0.000000 0.000000 0.000000 0.000000 0.000000 0.000000 0.000000 0.000000 0.000000 0.000000 0.000000 0.000000 0.000000 -90.000000 0.000000 0.000000 0.000000 0.000000 0.000000 0.000000 0.000000 0.000000 0.000000 0.000000 0.000000 0.000000 0.000000 0.000000 0.000000 0.000000 0.000000
10.267025 14.586255 3.206229 -66.874990 89.852371 -69.903603 0.000000 0.000000 0.000000 -9.469641 -1.757545 -21.233993 9.454330 17.091318 57.648345 0.000000 0.000000 0.000000 0.000000 0.000000 0.000000 0.000000 0.000000 0.000000 10.584044 -1.339095 -19.733128 -8.533494 -16.498020 54.462499 -0.035031 10.184633 15.052493 -0.725109 5.440900 -15.170637 -0.124088 -0.438829 -0.521421 0.065430 -0.575574 1.732656 0.123315 -0.286244 2.068862 -15.507941 -14.154122 -16.333867 13.572358 -18.980193 19.462302 4.210548 -8.347909 11.940603 0.000000 0.000000 0.000000 90.000000 0.000000 0.000000 0.000000 0.000000 0.000000 0.000000 0.000000 0.000000 0.000000 0.000000 0.000000 0.000000 0.000000 0.000000 0.000000 0.000000 0.000000 0.000000 0.000000 0.000000 -90.000000 0.000000 0.000000 0.000000 0.000000 0.000000 0.000000 0.000000 0.000000 0.000000 0.000000 0.000000 0.000000 0.000000 0.000000 0.000000 0.000000 0.000000
10.269487 14.585682 3.206344 -74.281385 89.831757 -77.285604 0.000000 0.000000 0.000000 -9.441812 -1.768368 -21.252889 9.461545 17.095728 57.672968 0.000000 0.000000 0.000000 0.000000 0.000000 0.000000 0.000000 0.000000 0.000000 10.618515 -1.337892 -19.746642 -8.535441 -16.499279 54.469199 -0.039097 10.168600 15.091889 -0.706613 5.372300 -14.973655 -0.117732 -0.428694 -0.591682 0.069094 -0.562461 1.718684 0.123372 -0.279716 2.093942 -15.500611 -14.159333 -16.329401 13.534736 -18.988840 19.531303 4.194572 -8.353463 11.961905 0.000000 0.000000 0.000000 90.000000 0.000000 0.000000 0.000000 0.000000 0.000000 0.000000 0.000000 0.000000 0.000000 0.000000 0.000000 0.000000 0.000000 0.000000 0.000000 0.000000 0.000000 0.000000 0.000000 0.000000 -90.000000 0.000000 0.000000 0.000000 0.000000 0.000000 0.000000 0.000000 0.000000 0.000000 0.000000 0.000000 0.000000 0.000000 0.000000 0.000000 0.000000 0.000000
10.271862 14.585080 3.206110 -79.906037 89.811114 -82.895245 0.000000 0.000000 0.000000 -9.417759 -1.777883 -21.261125 9.463473 17.096912 57.679581 0.000000 0.000000 0.000000 0.000000 0.000000 0.000000 0.000000 0.000000 0.000000 10.648223 -1.340873 -19.754462 -8.539537 -16.502079 54.483596 -0.041739 10.158086 15.117778 -0.702264 5.356278 -14.927638 -0.112392 -0.431107 -0.641405 0.085657 -0.566196 1.713078 0.136878 -0.281700 2.116264 -15.538074 -14.156148 -16.369988 13.520848 -18.974567 19.605183 4.196373 -8.347224 11.997963 0.000000 0.000000 0.000000 90.000000 0.000000 0.000000 0.000000 0.000000 0.000000 0.000000 0.000000 0.000000 0.000000 0.000000 0.000000 0.000000 0.000000 0.000000 0.000000 0.000000 0.000000 0.000000 0.000000 0.000000 -90.000000 0.000000 0.000000 0.000000 0.000000 0.000000 0.000000 0.000000 0.000000 0.000000 0.000000 0.000000 0.000000 0.000000 0.000000 0.000000 0.000000 0.000000
10.274152 14.584451 3.205537 -83.800147 89.790442 -86.783457 0.000000 0.000000 0.000000 -9.397373 -1.786129 -21.259007 9.460267 17.094965 57.668701 0.000000 0.000000 0.000000 0.000000 0.000000 0.000000 0.000000 0.000000 0.000000 10.673304 -1.347916 -19.756752 -8.545722 -16.506373 54.505471 -0.042999 10.152932 15.130547 -0.711655 5.391322 -15.028248 -0.108040 -0.445709 -0.671181 0.114746 -0.586295 1.715598 0.163448 -0.291950 2.135905 -15.619043 -14.144811 -16.454335 13.530010 -18.938034 19.683804 4.215441 -8.329530 12.048353 0.000000 0.000000 0.000000 90.000000 0.000000 0.000000 0.000000 0.000000 0.000000 0.000000 0.000000 0.000000 0.000000 0.000000 0.000000 0.000000 0.000000 0.000000 0.000000 0.000000 0.000000 0.000000 0.000000 0.000000 -90.000000 0.000000 0.000000 0.000000 0.000000 0.000000 0.000000 0.000000 0.000000 0.000000 0.000000 0.000000 0.000000 0.000000 0.000000 0.000000 0.000000 0.000000
10.276181 14.583646 3.206010 -84.703388 89.748202 -87.711649 0.000000 0.000000 0.000000 -9.344439 -1.764396 -21.228522 9.454968 17.091755 57.650719 0.000000 0.000000 0.000000 0.000000 0.000000 0.000000 0.000000 0.000000 0.000000 10.730585 -1.337661 -19.683488 -8.534564 -16.498729 54.466169 -0.033540 10.234227 15.097696 -0.703617 5.361356 -14.942236 -0.090181 -0.452294 -0.670326 0.141787 -0.595849 1.721211 0.180867 -0.296666 2.141341 -15.680927 -14.135956 -16.494979 13.540087 -18.911827 19.728569 4.232026 -8.318111 12.077132 0.000000 0.000000 0.000000 90.000000 0.000000 0.000000 0.000000 0.000000 0.000000 0.000000 0.000000 0.000000 0.000000 0.000000 0.000000 0.000000 0.000000 0.000000 0.000000 0.000000 0.000000 0.000000 0.000000 0.000000 -90.000000 0.000000 0.000000 0.000000 0.000000 0.000000 0.000000 0.000000 0.000000 0.000000 0.000000 0.000000 0.000000 0.000000 0.000000 0.000000 0.000000 0.000000
10.278136 14.582787 3.206807 -84.650078 89.699387 -87.693182 0.000000 0.000000 0.000000 -9.281562 -1.733081 -21.188734 9.448996 17.088137 57.630445 0.000000 0.000000 0.000000 0.000000 0.000000 0.000000 0.000000 0.000000 0.000000 10.797822 -1.321847 -19.585464 -8.517652 -16.487122 54.406564 -0.020735 10.342578 15.050725 -0.690661 5.313037 -14.803538 -0.068135 -0.456066 -0.660148 0.167836 -0.601694 1.727721 0.195095 -0.299442 2.142401 -15.735620 -14.127886 -16.519881 13.549764 -18.889118 19.761469 4.247447 -8.308900 12.098085 0.000000 0.000000 0.000000 90.000000 0.000000 0.000000 0.000000 0.000000 0.000000 0.000000 0.000000 0.000000 0.000000 0.000000 0.000000 0.000000 0.000000 0.000000 0.000000 0.000000 0.000000 0.000000 0.000000 0.000000 -90.000000 0.000000 0.000000 0.000000 0.000000 0.000000 0.000000 0.000000 0.000000 0.000000 0.000000 0.000000 0.000000 0.000000 0.000000 0.000000 0.000000 0.000000
10.280598 14.581929 3.207265 -83.454903 89.664229 -86.546337 0.000000 0.000000 0.000000 -9.237814 -1.690650 -21.122482 9.441838 17.083785 57.606109 0.000000 0.000000 0.000000 0.000000 0.000000 0.000000 0.000000 0.000000 0.000000 10.854225 -1.297625 -19.418373 -8.480030 -16.461182 54.273773 -0.009397 10.443989 15.018143 -0.715398 5.404771 -15.066829 -0.049925 -0.440033 -0.670283 0.170298 -0.580678 1.729152 0.187880 -0.288620 2.149330 -15.709566 -14.120099 -16.408792 13.513002 -18.883507 19.711307 4.236968 -8.315772 12.049011 0.000000 0.000000 0.000000 90.000000 0.000000 0.000000 0.000000 0.000000 0.000000 0.000000 0.000000 0.000000 0.000000 0.000000 0.000000 0.000000 0.000000 0.000000 0.000000 0.000000 0.000000 0.000000 0.000000 0.000000 -90.000000 0.000000 0.000000 0.000000 0.000000 0.000000 0.000000 0.000000 0.000000 0.000000 0.000000 0.000000 0.000000 0.000000 0.000000 0.000000 0.000000 0.000000
10.283168 14.581285 3.207324 -81.974528 89.651048 -85.109960 0.000000 0.000000 0.000000 -9.224092 -1.655146 -21.055784 9.433190 17.078527 57.576673 0.000000 0.000000 0.000000 0.000000 0.000000 0.000000 0.000000 0.000000 0.000000 10.878313 -1.280714 -19.282062 -8.452823 -16.442415 54.177721 -0.001515 10.515696 14.997234 -0.746402 5.517593 -15.391172 -0.048119 -0.426442 -0.683030 0.166417 -0.562505 1.730676 0.183260 -0.279471 2.157933 -15.673160 -14.112112 -16.309776 13.462094 -18.875253 19.664294 4.219793 -8.321614 12.000106 0.000000 0.000000 0.000000 90.000000 0.000000 0.000000 0.000000 0.000000 0.000000 0.000000 0.000000 0.000000 0.000000 0.000000 0.000000 0.000000 0.000000 0.000000 0.000000 0.000000 0.000000 0.000000 0.000000 0.000000 -90.000000 0.000000 0.000000 0.000000 0.000000 0.000000 0.000000 0.000000 0.000000 0.000000 0.000000 0.000000 0.000000 0.000000 0.000000 0.000000 0.000000 0.000000
10.286031 14.581227 3.206293 -79.716054 89.697831 -82.883667 0.000000 0.000000 0.000000 -9.292292 -1.638540 -20.987871 9.420478 17.070796 57.533326 0.000000 0.000000 0.000000 0.000000 0.000000 0.000000 0.000000 0.000000 0.000000 10.814237 -1.283749 -19.229724 -8.454025 -16.443217 54.181901 -0.003061 10.506363 15.008171 -0.794502 5.687948 -15.882080 -0.091066 -0.419513 -0.702899 0.145230 -0.552083 1.732451 0.185723 -0.274890 2.171103 -15.608511 -14.103579 -16.243695 13.372593 -18.859792 19.625871 4.184348 -8.324649 11.951663 0.000000 0.000000 0.000000 90.000000 0.000000 0.000000 0.000000 0.000000 0.000000 0.000000 0.000000 0.000000 0.000000 0.000000 0.000000 0.000000 0.000000 0.000000 0.000000 0.000000 0.000000 0.000000 0.000000 0.000000 -90.000000 0.000000 0.000000 0.000000 0.000000 0.000000 0.000000 0.000000 0.000000 0.000000 0.000000 0.000000 0.000000 0.000000 0.000000 0.000000 0.000000 0.000000
10.288954 14.580812 3.206338 -79.073151 89.697100 -82.275844 0.000000 0.000000 0.000000 -9.292477 -1.617511 -20.928117 9.412876 17.066174 57.507400 0.000000 0.000000 0.000000 0.000000 0.000000 0.000000 0.000000 0.000000 0.000000 10.807955 -1.292133 -19.220419 -8.472560 -16.456002 54.247312 -0.008820 10.467684 15.042626 -0.821235 5.782220 -16.153885 -0.100842 -0.418292 -0.715000 0.143706 -0.550178 1.739844 0.189560 -0.274105 2.185588 -15.544758 -14.090236 -16.221304 13.286320 -18.833514 19.598057 4.150337 -8.320153 11.914425 0.000000 0.000000 0.000000 90.000000 0.000000 0.000000 0.000000 0.000000 0.000000 0.000000 0.000000 0.000000 0.000000 0.000000 0.000000 0.000000 0.000000 0.000000 0.000000 0.000000 0.000000 0.000000 0.000000 0.000000 -90.000000 0.000000 0.000000 0.000000 0.000000 0.000000 0.000000 0.000000 0.000000 0.000000 0.000000 0.000000 0.000000 0.000000 0.000000 0.000000 0.000000 0.000000
